HIERARCHY
ROOT Hips
{
	OFFSET 0.000000 0.000000 0.000000
	CHANNELS 6 Xposition Yposition Zposition Xrotation Yrotation Zrotation
	JOINT LeftUpLeg_virtual
	{
		OFFSET 0.000000 0.000000 0.000000
		CHANNELS 3 Xrotation Yrotation Zrotation
		JOINT LeftUpLeg
		{
			OFFSET 10.205400 -3.823500 0.155100
			CHANNELS 3 Xrotation Yrotation Zrotation
			JOINT LeftLeg
			{
				OFFSET 0.708757 -12.982077 0.567790
				CHANNELS 3 Xrotation Yrotation Zrotation
				JOINT LeftFoot
				{
					OFFSET -0.708756 -10.717838 -2.184338
					CHANNELS 3 Xrotation Yrotation Zrotation
					JOINT LeftToeBase
					{
						OFFSET 0.108149 -7.191104 7.560241
						CHANNELS 3 Xrotation Yrotation Zrotation
						JOINT LeftToe_End
						{
							OFFSET 0.070230 0.081724 4.490308
							CHANNELS 3 Xrotation Yrotation Zrotation
							End Site
							{
								OFFSET 0 0 0
							}
						}
					}
				}
			}
		}
	}
	JOINT RightUpLeg_virtual
	{
		OFFSET 0.000000 0.000000 0.000000
		CHANNELS 3 Xrotation Yrotation Zrotation
		JOINT RightUpLeg
		{
			OFFSET -10.205400 -3.823500 0.005500
			CHANNELS 3 Xrotation Yrotation Zrotation
			JOINT RightLeg
			{
				OFFSET -0.708756 -12.982134 0.610632
				CHANNELS 3 Xrotation Yrotation Zrotation
				JOINT RightFoot
				{
					OFFSET 0.708754 -10.717769 -1.945823
					CHANNELS 3 Xrotation Yrotation Zrotation
					JOINT RightToeBase
					{
						OFFSET -0.108140 -7.191069 7.372968
						CHANNELS 3 Xrotation Yrotation Zrotation
						JOINT RightToe_End
						{
							OFFSET -0.070227 0.081735 4.479403
							CHANNELS 3 Xrotation Yrotation Zrotation
							End Site
							{
								OFFSET 0 0 0
							}
						}
					}
				}
			}
		}
	}
	JOINT Spine_virtual
	{
		OFFSET 0.000000 0.000000 0.000000
		CHANNELS 3 Xrotation Yrotation Zrotation
		JOINT Spine
		{
			OFFSET 0.000000 6.876099 0.125700
			CHANNELS 3 Xrotation Yrotation Zrotation
			JOINT Spine1
			{
				OFFSET 0.000000 5.730043 0.104720
				CHANNELS 3 Xrotation Yrotation Zrotation
				JOINT Spine1_split
				{
					OFFSET 0.000000 5.730043 0.104720
					CHANNELS 3 Xrotation Yrotation Zrotation
					JOINT Spine2
					{
						OFFSET 0.000000 5.730043 0.104720
						CHANNELS 3 Xrotation Yrotation Zrotation
						JOINT Neck_virtual
						{
							OFFSET 0.000000 0.000000 0.000000
							CHANNELS 3 Xrotation Yrotation Zrotation
							JOINT Neck
							{
								OFFSET 0.000000 10.314075 0.188496
								CHANNELS 3 Xrotation Yrotation Zrotation
								JOINT Head
								{
									OFFSET 0.000000 7.643700 -2.377400
									CHANNELS 3 Xrotation Yrotation Zrotation
									JOINT HeadTop_End
									{
										OFFSET 0.000000 43.788605 -13.619600
										CHANNELS 3 Xrotation Yrotation Zrotation
										End Site
										{
											OFFSET 0 0 0
										}
									}
								}
							}
						}
						JOINT LeftShoulder_virtual
						{
							OFFSET 0.000000 0.000000 0.000000
							CHANNELS 3 Xrotation Yrotation Zrotation
							JOINT LeftShoulder
							{
								OFFSET 2.196100 4.412489 0.087492
								CHANNELS 3 Xrotation Yrotation Zrotation
								JOINT LeftShoulder_split
								{
									OFFSET 2.196100 4.412489 0.087492
									CHANNELS 3 Xrotation Yrotation Zrotation
									JOINT LeftArm
									{
										OFFSET 8.771219 -2.981674 -0.026999
										CHANNELS 3 Xrotation Yrotation Zrotation
										JOINT LeftForeArm
										{
											OFFSET 8.512804 0.000000 -0.000000
											CHANNELS 3 Xrotation Yrotation Zrotation
											JOINT LeftHand
											{
												OFFSET 18.484802 0.000000 -0.000000
												CHANNELS 3 Xrotation Yrotation Zrotation
												End Site
												{
													OFFSET 0 0 0
												}
											}
										}
									}
								}
							}
						}
						JOINT RightShoulder_virtual
						{
							OFFSET 0.000000 0.000000 0.000000
							CHANNELS 3 Xrotation Yrotation Zrotation
							JOINT RightShoulder
							{
								OFFSET -2.196100 4.412496 0.070690
								CHANNELS 3 Xrotation Yrotation Zrotation
								JOINT RightShoulder_split
								{
									OFFSET -2.196100 4.412496 0.070690
									CHANNELS 3 Xrotation Yrotation Zrotation
									JOINT RightArm
									{
										OFFSET -8.771282 -2.981682 -0.094208
										CHANNELS 3 Xrotation Yrotation Zrotation
										JOINT RightForeArm
										{
											OFFSET -8.494598 0.000000 0.000000
											CHANNELS 3 Xrotation Yrotation Zrotation
											JOINT RightHand
											{
												OFFSET -18.483803 0.000000 0.000001
												CHANNELS 3 Xrotation Yrotation Zrotation
												End Site
												{
													OFFSET 0 0 0
												}
											}
										}
									}
								}
							}
						}
					}
				}
			}
		}
	}
}
MOTION
Frames: 7
Frame Time: 0.03333333
2.159993 31.697605 -0.946026 0.000000 0.000000 0.000000 -15.692979 -53.877256 -9.217479 -21.932525 -1.016207 19.746502 24.567381 -12.275330 -2.158042 0.963743 -7.463703 2.709307 -15.642330 -7.288640 2.064758 0.000000 0.000000 0.000000 -14.479883 -52.588594 -8.646931 15.302388 -14.741017 -16.909446 23.799150 10.507085 -1.626351 -30.679837 -16.948799 31.666963 -5.028796 -2.170672 -0.594374 0.000000 0.000000 0.000000 -17.621410 -46.146879 -9.292332 6.194177 5.731345 -0.292066 10.326768 10.218267 -3.333287 0.638675 -1.610294 0.427105 0.000000 0.000000 0.000000 10.324852 9.499964 -3.761586 -6.110233 -4.256904 1.811399 -3.093393 18.578994 1.089126 0.000000 0.000000 0.000000 9.601192 9.305312 -3.315015 2.912215 2.110749 -3.902459 -6.617322 1.353326 -5.789069 -14.076470 -4.749518 -54.312367 2.129189 -52.863912 1.056955 0.000000 0.000000 0.000000 10.178610 9.959448 -2.821869 2.865589 8.785858 9.435176 -3.207083 4.468010 -1.350918 -0.792413 -27.872858 64.803086 -8.991767 51.151027 9.838742 0.000000 0.000000 0.000000 
2.188309 31.901367 -0.591702 0.000000 0.000000 0.000000 -15.153412 -53.994893 -8.877338 -22.416765 -0.236306 21.001302 24.884008 -13.046338 -2.268100 0.285923 -8.425069 4.440957 -14.752642 -6.805378 1.394843 0.000000 0.000000 0.000000 -13.396090 -52.130811 -8.111681 15.578157 -14.698039 -17.698786 21.113102 9.957634 -1.355073 -31.174561 -15.903356 28.979984 -1.339338 -2.508842 -0.008777 0.000000 0.000000 0.000000 -17.008892 -46.376534 -9.393251 6.265543 5.676034 -0.203601 10.715285 10.218207 -3.323302 1.036450 -0.895531 0.378794 0.000000 0.000000 0.000000 10.417370 9.506229 -3.680007 -6.361738 -4.074034 1.946758 -2.953312 19.386688 0.804881 0.000000 0.000000 0.000000 10.127247 9.315531 -3.323082 2.937879 1.696920 -4.101383 -5.947444 1.413289 -5.720494 -12.711677 -3.414064 -55.549703 2.102896 -51.445453 1.188849 0.000000 0.000000 0.000000 10.740111 10.036581 -2.927120 2.756109 9.365543 10.299228 -3.786404 3.994449 -0.951918 -0.252226 -28.245505 64.572718 -8.649358 50.107234 9.634370 0.000000 0.000000 0.000000 
2.317482 32.028740 -0.492893 0.000000 0.000000 0.000000 -13.829366 -53.559601 -8.150478 -24.674050 -0.166918 22.862047 25.355201 -13.521304 -2.475983 0.531775 -8.738121 2.591421 -12.296536 -5.722663 -0.023105 0.000000 0.000000 0.000000 -11.750483 -50.615281 -7.389939 13.537614 -14.906594 -18.278143 21.821531 9.732343 -0.541168 -32.525197 -13.722662 23.384070 1.260974 -2.348766 0.004602 0.000000 0.000000 0.000000 -15.937842 -45.844493 -9.179318 6.613718 5.381489 -0.236447 11.448826 10.137645 -3.362195 1.526273 -0.107125 0.338344 0.000000 0.000000 0.000000 10.842455 9.421145 -3.647404 -7.748074 -3.608827 2.209082 -2.962507 19.759257 0.459341 0.000000 0.000000 0.000000 10.927170 9.232408 -3.413180 2.870230 1.438681 -3.795497 -5.256234 1.039711 -4.446142 -12.200122 -1.865483 -58.300275 3.219955 -50.531782 2.591074 0.000000 0.000000 0.000000 11.712423 9.994507 -3.204347 2.783937 10.014250 11.179020 -4.081208 3.469892 -0.705591 -0.996748 -26.411807 63.192767 -7.983335 49.409401 8.831037 0.000000 0.000000 0.000000 
2.501047 31.949041 -0.778809 0.000000 0.000000 0.000000 -12.070911 -52.774321 -7.348280 -28.107825 -0.589151 24.257955 25.105253 -12.854260 -2.510822 1.543600 -7.818407 -1.405935 -9.308029 -4.330693 -1.886903 0.000000 0.000000 0.000000 -9.590573 -48.418036 -6.493368 9.158911 -15.455533 -18.516725 26.526117 9.983343 0.924986 -33.125786 -10.395291 16.395318 0.557032 -2.034387 -0.360400 0.000000 0.000000 0.000000 -14.282084 -44.815306 -8.523137 7.046181 4.823439 -0.338230 12.460465 9.903554 -3.403026 1.610940 0.171681 0.622281 0.000000 0.000000 0.000000 11.654229 9.188632 -3.642259 -10.162076 -2.914592 2.606291 -3.302542 19.667508 0.155415 0.000000 0.000000 0.000000 12.017405 8.992716 -3.532389 2.753071 1.488395 -2.990033 -4.636441 0.604026 -2.565441 -13.543306 -0.770345 -61.640395 4.614952 -49.360500 4.496607 0.000000 0.000000 0.000000 12.981419 9.762161 -3.532496 2.929228 10.657848 11.719961 -4.148780 2.849296 -0.709553 -3.367425 -22.752637 60.826653 -7.231161 49.757119 7.549399 0.000000 0.000000 0.000000 
2.690486 31.598812 -1.340740 0.000000 0.000000 0.000000 -9.641145 -51.471185 -6.307456 -32.550175 -1.101206 24.764797 23.721015 -10.733204 -2.171279 3.622010 -6.169881 -5.765612 -6.749453 -2.986703 -3.650363 0.000000 0.000000 0.000000 -7.417977 -46.039228 -5.709930 2.263402 -16.479445 -18.471844 34.516136 11.133187 2.778650 -31.492288 -6.366495 9.973629 -4.164508 -1.799737 -0.914907 0.000000 0.000000 0.000000 -11.899241 -43.311326 -7.474203 7.400990 4.065866 -0.432488 13.763572 9.453305 -3.412731 1.804082 0.288910 1.121407 0.000000 0.000000 0.000000 12.851829 8.739586 -3.648496 -13.519206 -2.179108 3.129964 -4.287095 18.862472 0.056384 0.000000 0.000000 0.000000 13.377569 8.533563 -3.660907 2.621757 1.740660 -1.881419 -4.126200 0.368191 -0.951339 -16.372563 -0.510989 -64.519217 5.211801 -47.641990 5.917797 0.000000 0.000000 0.000000 14.440272 9.277483 -3.805151 3.200515 11.191355 11.614956 -4.386889 2.426671 -0.754521 -6.667498 -17.888966 58.026384 -6.601310 51.819218 5.860420 0.000000 0.000000 0.000000 
2.735544 31.001699 -1.820055 0.000000 0.000000 0.000000 -6.277562 -49.192884 -4.854005 -38.456885 -1.505298 24.158277 21.581825 -7.960753 -1.319406 7.533446 -5.256182 -9.297202 -5.971927 -1.942140 -4.361468 0.000000 0.000000 0.000000 -5.025588 -43.426442 -4.834363 -6.309466 -17.760958 -17.992472 44.307823 13.617626 4.375444 -28.523481 -2.120442 4.603254 -10.794479 -1.786711 -1.385846 0.000000 0.000000 0.000000 -8.600070 -41.423765 -6.165360 7.649049 3.202089 -0.435982 15.413625 8.766725 -3.411280 1.885561 0.428258 1.432023 0.000000 0.000000 0.000000 14.481008 8.083700 -3.656607 -17.573563 -1.669227 3.712584 -5.976907 17.484659 0.251892 0.000000 0.000000 0.000000 15.025525 7.875115 -3.808066 2.481688 2.075673 -0.690564 -3.608201 0.231292 0.000979 -19.848873 -1.296660 -66.021811 4.436194 -46.024909 6.288369 0.000000 0.000000 0.000000 16.055816 8.557838 -3.996353 3.591566 11.575221 10.769588 -4.827269 2.370961 -1.005042 -10.012187 -13.187785 55.357884 -6.037065 55.659143 3.686528 0.000000 0.000000 0.000000 
2.598861 30.201422 -2.278584 0.000000 0.000000 0.000000 -2.123128 -45.514260 -3.124769 -46.418188 -1.630744 23.237664 19.939822 -5.579900 -0.148734 13.325745 -6.331929 -10.741320 -6.214276 -1.357991 -4.113673 0.000000 0.000000 0.000000 -1.779993 -40.193433 -3.511143 -15.057895 -19.249047 -16.791434 54.117296 16.890800 5.125987 -26.689121 2.100992 -0.838656 -16.201709 -1.913621 -1.585533 0.000000 0.000000 0.000000 -4.260693 -38.921129 -4.560696 7.896967 2.389543 -0.413990 17.406421 7.852377 -3.471024 1.866223 0.258225 1.633690 0.000000 0.000000 0.000000 16.485951 7.251643 -3.685767 -22.073838 -1.464155 4.155426 -8.338987 15.540900 0.814009 0.000000 0.000000 0.000000 16.914685 7.059234 -4.020539 2.380461 2.242748 0.300880 -2.939081 -0.313354 0.325002 -23.066799 -3.342226 -65.754941 2.331639 -45.603425 5.558982 0.000000 0.000000 0.000000 17.841293 7.669075 -4.131302 4.092281 11.955780 9.444833 -5.252675 3.128481 -1.417622 -12.849747 -9.850250 53.390001 -5.245028 60.878357 0.874252 0.000000 0.000000 0.000000 
